<svg xmlns="http://www.w3.org/2000/svg" viewBox="0 0 500 500">
  <path fill="#4D75A3" d="M77,0H423c42.6,0,77,34.5,77,77V423c0,42.6-34.5,77-77,77H77c-42.6,0-77-34.5-77-77V77C0,34.5,34.5,0,77,0L77,0z"/>
  <path fill="#FFFFFF" d="M245.8,350h20.5c0,0,6.2-0.7,9.3-4.1c2.9-3.1,2.8-9,2.8-9s-0.4-27.4,12.3-31.5c12.6-4,28.7,26.5,45.8,38.3c12.9,8.9,22.7,6.9,22.7,6.9l45.7-0.6c0,0,23.9-1.5,12.6-20.3c-0.9-1.5-6.6-13.9-34-39.3c-28.7-26.6-24.8-22.3,9.7-68.3c21-28,29.4-45.1,26.8-52.4c-2.5-7-18-5.1-18-5.1l-51.5,0.3c0,0-3.8-0.5-6.6,1.2c-2.8,1.7-4.5,5.5-4.5,5.5s-8.1,21.7-19,40.1c-22.9,38.9-32.1,41-35.8,38.5c-8.7-5.6-6.5-22.6-6.5-34.7c0-37.7,5.7-53.4-11.1-57.5c-5.6-1.4-9.7-2.2-24-2.4c-18.4-0.2-33.9,0.1-42.7,4.4c-5.9,2.9-10.4,9.3-7.6,9.6c3.4,0.5,11.1,2.1,15.2,7.6c5.3,7.2,5.1,23.3,5.1,23.3s3,44.4-7.1,49.9c-6.9,3.8-16.4-3.9-36.9-39.2c-10.5-18.1-18.4-38.1-18.4-38.1s-1.5-3.7-4.2-5.7c-3.3-2.4-7.9-3.2-7.9-3.2l-48.9,0.3c0,0-7.3,0.2-10,3.4c-2.4,2.8-0.2,8.7-0.2,8.7s38.3,89.6,81.6,134.7C200.7,352.7,245.8,350,245.8,350L245.8,350z"/>
</svg>