<svg xmlns="http://www.w3.org/2000/svg" viewBox="0 0 132 30">
  <path d="M6.5,3.5v5.6h5.1v2.7H6.5v10.6c0,2.4,0.7,3.8,2.7,3.8c0.9,0,1.6-0.1,2.1-0.2l0.2,2.7c-0.7,0.3-1.8,0.5-3.2,0.5c-1.7,0-3-0.5-3.9-1.5c-1-1.1-1.4-2.8-1.4-5.1V11.9H0V9.2h3V4.5L6.5,3.5z"/>
  <path d="M26.6,28.8l-0.3-2.5h-0.1c-1.1,1.5-3.2,2.9-6,2.9c-4,0-6-2.8-6-5.6c0-4.8,4.2-7.4,11.8-7.3v-0.4c0-1.6-0.4-4.5-4.5-4.5c-1.8,0-3.7,0.6-5.1,1.5l-0.8-2.4c1.6-1.1,4-1.7,6.5-1.7c6,0,7.5,4.1,7.5,8v7.4c0,1.7,0.1,3.4,0.3,4.7H26.6z M26,18.8c-3.9-0.1-8.3,0.6-8.3,4.4c0,2.3,1.5,3.4,3.4,3.4c2.6,0,4.2-1.6,4.8-3.3c0.1-0.4,0.2-0.8,0.2-1.1V18.8z"/>
  <path d="M38.8,18.2L38.8,18.2c0.6-0.7,1.3-1.5,1.8-2.2l5.8-6.8h4.3l-7.6,8.1l8.6,11.6h-4.3l-6.8-9.4l-1.8,2v7.4h-3.5V0h3.5V18.2z"/>
  <path d="M56.3,19.7c0.1,4.8,3.2,6.8,6.7,6.8c2.6,0,4.1-0.4,5.4-1l0.6,2.6c-1.3,0.6-3.4,1.2-6.5,1.2c-6.1,0-9.7-4-9.7-9.9c0-5.9,3.5-10.6,9.2-10.6c6.4,0,8.1,5.6,8.1,9.3c0,0.7-0.1,1.3-0.1,1.7H56.3z M66.8,17.1c0-2.3-0.9-5.8-5-5.8c-3.6,0-5.2,3.3-5.5,5.8H66.8z"/>
  <path fill="#EF2020" d="M74.3,24.7c1,0.6,3.4,1.7,5.8,1.7c4.6,0,6-2.9,6-5.1c0-3.7-3.4-5.3-6.8-5.3h-2v-2.7h2c2.6,0,5.9-1.3,5.9-4.5c0-2.1-1.3-4-4.6-4c-2.1,0-4.1,0.9-5.3,1.7L74.4,4c1.4-1,4.1-2,6.9-2c5.2,0,7.6,3.1,7.6,6.3c0,2.7-1.6,5-4.9,6.2v0.1c3.2,0.6,5.9,3.1,5.9,6.8c0,4.2-3.3,7.9-9.6,7.9c-3,0-5.6-0.9-6.9-1.8L74.3,24.7z"/>
  <path fill="#EF2020" d="M109.4,5c-0.7,0-1.7,0-2.7,0.2c-5.6,0.9-8.6,5-9.2,9.4h0.1c1.3-1.7,3.5-3,6.4-3c4.7,0,8,3.4,8,8.5c0,4.8-3.3,9.3-8.8,9.3c-5.6,0-9.3-4.4-9.3-11.2c0-5.2,1.9-9.3,4.5-11.9c2.2-2.2,5.1-3.5,8.4-3.9c1.1-0.2,1.9-0.2,2.6-0.2V5zM108.4,20.2c0-3.8-2.2-6.1-5.4-6.1c-2.2,0-4.1,1.3-5.1,3.2c-0.2,0.4-0.4,0.9-0.4,1.6c0.1,4.3,2.1,7.6,5.8,7.6C106.3,26.5,108.4,24,108.4,20.2z"/>
  <path fill="#EF2020" d="M130.9,5.4h-10.1l-1,6.8c0.6-0.1,1.2-0.2,2.2-0.2c2,0,4.1,0.4,5.7,1.4c2.1,1.2,3.8,3.5,3.8,6.8c0,5.2-4.1,9-9.8,9c-2.9,0-5.3-0.8-6.6-1.6l0.9-2.7c1.1,0.6,3.2,1.5,5.6,1.5c3.4,0,6.3-2.2,6.3-5.7c0-3.4-2.3-5.8-7.6-5.8c-1.5,0-2.7,0.2-3.7,0.3l1.7-12.7h12.6V5.4z"/>
</svg>